<svg id="svg" version="1.1" xmlns="http://www.w3.org/2000/svg" xmlns:xlink="http://www.w3.org/1999/xlink" width="400" height="400" viewBox="0, 0, 400,400"><g id="svgg"><path id="path0" d="M121.200 79.600 C 121.200 79.837,119.729 80.000,117.587 80.000 C 114.860 80.000,113.922 80.137,113.760 80.560 C 113.636 80.882,112.989 81.120,112.238 81.120 C 110.719 81.120,107.668 83.797,105.823 86.746 C 105.223 87.707,104.387 88.583,103.966 88.693 C 103.545 88.803,103.200 89.106,103.200 89.366 C 103.200 89.902,100.143 93.200,99.646 93.200 C 99.032 93.200,97.600 94.695,97.600 95.337 C 97.600 95.690,97.082 96.247,96.448 96.575 C 95.268 97.186,94.800 97.924,94.800 99.179 C 94.800 100.378,93.210 101.999,91.154 102.897 C 90.079 103.366,89.200 103.914,89.200 104.115 C 89.200 104.315,88.949 105.046,88.643 105.740 C 88.336 106.433,87.987 107.301,87.867 107.670 C 87.747 108.038,87.000 108.647,86.207 109.024 C 85.414 109.400,84.477 110.269,84.125 110.954 C 83.773 111.639,83.073 112.585,82.570 113.056 C 82.067 113.526,81.458 114.643,81.217 115.539 C 80.732 117.338,80.000 118.111,80.000 116.824 C 80.000 116.371,79.820 116.000,79.600 116.000 C 79.380 116.000,79.200 116.180,79.200 116.400 C 79.200 116.620,78.938 116.800,78.618 116.800 C 77.509 116.800,75.771 118.952,75.953 120.100 C 75.979 120.265,75.640 120.400,75.200 120.400 C 74.760 120.400,74.400 120.591,74.400 120.824 C 74.400 121.057,74.618 121.112,74.885 120.947 C 75.152 120.782,73.993 122.011,72.311 123.678 C 69.912 126.053,69.299 126.891,69.472 127.554 C 69.600 128.042,69.504 128.400,69.247 128.400 C 69.001 128.400,68.800 128.220,68.800 128.000 C 68.800 127.780,68.642 127.600,68.449 127.600 C 67.968 127.600,67.203 129.618,67.311 130.600 C 67.389 131.303,67.163 131.400,65.438 131.400 C 64.122 131.400,63.414 131.583,63.286 131.956 C 63.182 132.261,63.267 132.406,63.476 132.277 C 63.697 132.140,63.781 132.551,63.677 133.260 C 63.544 134.163,63.201 134.581,62.349 134.878 C 61.717 135.098,61.200 135.518,61.200 135.811 C 61.200 136.384,58.706 139.200,58.199 139.200 C 57.459 139.200,56.000 141.329,56.000 142.408 C 56.000 143.285,55.850 143.517,55.395 143.343 C 54.992 143.188,54.862 143.296,55.003 143.665 C 55.137 144.014,54.787 144.381,54.055 144.657 C 51.842 145.492,51.543 147.151,53.317 148.753 C 54.466 149.791,54.948 150.012,55.298 149.662 C 56.103 148.857,56.472 149.159,56.200 150.400 C 56.034 151.155,56.097 151.600,56.368 151.600 C 56.606 151.600,56.800 151.966,56.800 152.413 C 56.800 152.859,57.115 153.339,57.500 153.479 C 58.722 153.922,61.147 156.002,61.411 156.833 C 61.550 157.274,62.505 158.501,63.532 159.561 C 64.560 160.621,65.850 162.045,66.400 162.727 C 66.950 163.408,67.695 163.974,68.056 163.983 C 68.416 163.992,68.700 164.225,68.687 164.500 C 68.601 166.279,70.481 168.479,71.347 167.613 C 72.081 166.879,72.342 167.158,73.247 169.640 C 73.813 171.194,74.449 172.222,75.000 172.473 C 75.475 172.689,76.070 173.436,76.322 174.133 C 76.852 175.596,78.400 176.829,78.400 175.789 C 78.400 175.291,78.558 175.256,79.221 175.611 C 79.680 175.857,79.989 176.365,79.921 176.764 C 79.854 177.156,79.980 177.520,80.200 177.573 C 81.069 177.780,81.646 178.583,81.453 179.318 C 81.217 180.222,81.968 181.600,82.696 181.600 C 82.973 181.600,83.200 181.780,83.200 182.000 C 83.200 182.220,83.479 182.400,83.821 182.400 C 84.162 182.400,84.630 182.940,84.860 183.600 C 85.090 184.260,85.441 184.800,85.640 184.800 C 86.070 184.800,89.000 188.795,89.000 189.381 C 89.000 189.606,89.323 189.851,89.717 189.927 C 90.112 190.003,90.922 190.319,91.517 190.629 C 92.522 191.152,92.615 191.131,92.807 190.343 C 92.995 189.572,93.063 189.553,93.554 190.145 C 93.851 190.503,94.003 191.144,93.892 191.569 C 93.591 192.722,98.374 198.800,99.583 198.800 C 99.766 198.800,100.481 199.970,101.170 201.400 C 101.860 202.830,102.670 204.000,102.969 204.000 C 103.269 204.000,103.609 204.247,103.725 204.549 C 103.841 204.852,104.561 205.216,105.325 205.360 C 106.496 205.579,106.753 205.824,106.959 206.910 C 107.403 209.264,108.602 210.719,110.482 211.189 C 111.427 211.425,112.513 211.794,112.895 212.009 C 113.793 212.515,151.866 212.541,152.178 212.036 C 152.532 211.462,151.975 210.400,151.320 210.400 C 150.993 210.400,150.643 210.085,150.542 209.700 C 150.357 208.992,148.697 208.000,147.697 208.000 C 147.398 208.000,147.270 207.811,147.412 207.580 C 147.923 206.754,146.476 204.579,145.041 204.016 C 143.577 203.442,143.051 202.550,142.612 199.900 C 142.432 198.814,142.165 198.400,141.644 198.400 C 140.585 198.400,138.904 196.140,139.153 195.051 C 139.197 194.859,138.961 194.806,138.629 194.933 C 138.297 195.061,137.914 194.984,137.777 194.763 C 137.617 194.504,137.317 194.537,136.934 194.855 C 136.188 195.474,135.820 194.957,135.147 192.338 C 134.850 191.182,134.485 190.546,134.186 190.661 C 133.920 190.763,133.420 190.562,133.073 190.216 C 132.726 189.869,132.208 189.634,131.921 189.693 C 131.616 189.756,131.348 189.350,131.275 188.715 C 131.163 187.745,131.025 187.655,129.975 187.865 C 128.946 188.071,128.800 187.985,128.800 187.176 C 128.800 186.667,128.463 185.880,128.051 185.426 C 127.639 184.972,127.135 184.060,126.931 183.400 C 126.677 182.578,126.037 181.933,124.897 181.350 C 123.982 180.882,123.320 180.413,123.426 180.307 C 123.532 180.201,123.345 179.886,123.010 179.608 C 122.674 179.330,122.400 178.773,122.400 178.371 C 122.400 177.969,122.152 177.496,121.848 177.320 C 121.545 177.144,120.916 176.370,120.450 175.600 C 119.984 174.830,119.596 174.380,119.588 174.600 C 119.580 174.820,119.261 174.626,118.879 174.170 C 118.497 173.713,117.693 173.017,117.092 172.624 C 116.492 172.230,116.000 171.659,116.000 171.354 C 116.000 171.049,115.801 170.800,115.557 170.800 C 115.314 170.800,115.218 171.070,115.345 171.400 C 115.471 171.730,115.395 172.000,115.175 172.000 C 114.509 172.000,114.277 170.830,114.814 170.183 C 115.202 169.716,115.212 169.345,114.859 168.569 C 113.594 165.793,104.973 165.991,227.110 165.998 L 336.902 166.004 338.176 164.653 C 338.877 163.909,339.881 163.165,340.407 162.998 C 341.622 162.612,342.214 162.015,342.606 160.781 C 342.777 160.242,343.341 159.129,343.858 158.308 C 344.376 157.487,344.800 156.711,344.800 156.582 C 344.800 156.182,347.258 154.230,348.560 153.596 C 349.242 153.264,349.800 152.784,349.800 152.530 C 349.800 152.275,349.932 151.935,350.093 151.774 C 350.254 151.613,350.277 151.049,350.144 150.521 C 349.926 149.649,350.000 149.585,350.952 149.824 C 351.528 149.968,352.000 149.918,352.000 149.711 C 352.000 149.504,352.440 149.099,352.979 148.811 C 354.759 147.859,354.494 145.111,352.576 144.630 C 352.042 144.496,351.649 144.164,351.702 143.893 C 351.761 143.595,351.433 143.440,350.873 143.500 C 350.111 143.582,349.991 143.458,350.200 142.800 C 350.503 141.845,350.109 140.400,349.544 140.400 C 349.324 140.400,348.860 140.117,348.513 139.770 C 348.028 139.285,347.813 139.255,347.576 139.639 C 347.367 139.977,347.064 139.696,346.635 138.769 C 345.540 136.402,344.601 135.081,343.818 134.806 C 343.402 134.661,343.028 134.194,342.986 133.771 C 342.832 132.213,342.579 131.794,341.624 131.514 C 341.081 131.355,340.423 131.415,340.141 131.649 C 339.338 132.316,338.800 131.677,338.800 130.056 C 338.800 128.404,338.214 127.543,337.321 127.886 C 336.951 128.027,336.787 127.896,336.870 127.523 C 336.941 127.201,336.427 126.322,335.726 125.569 C 332.681 122.296,332.000 121.450,332.000 120.941 C 332.000 120.643,331.865 120.421,331.700 120.447 C 330.522 120.633,330.159 120.324,330.237 119.200 C 330.288 118.465,330.127 118.000,329.822 118.000 C 329.548 118.000,328.998 117.640,328.600 117.200 C 327.707 116.213,326.400 116.145,326.400 117.086 C 326.400 118.359,325.189 116.687,325.090 115.276 C 325.040 114.575,324.820 113.994,324.600 113.985 C 324.380 113.975,323.570 112.989,322.800 111.793 C 322.024 110.587,320.908 109.413,320.296 109.159 C 319.183 108.696,316.983 105.074,317.403 104.396 C 317.516 104.213,316.654 103.596,315.488 103.026 C 312.961 101.789,312.169 100.940,311.501 98.752 C 311.190 97.735,310.673 96.986,310.140 96.781 C 309.666 96.599,308.868 95.718,308.365 94.824 C 307.763 93.753,306.999 93.035,306.126 92.719 C 305.397 92.455,304.800 92.013,304.800 91.736 C 304.800 91.460,303.825 90.301,302.634 89.161 C 301.384 87.966,300.556 86.859,300.677 86.545 C 300.799 86.224,300.621 86.000,300.243 86.000 C 299.889 86.000,299.592 85.685,299.583 85.300 C 299.562 84.430,296.146 81.749,294.569 81.365 C 293.926 81.209,293.045 80.837,292.611 80.540 C 292.177 80.243,290.962 80.000,289.911 80.000 C 288.860 80.000,288.000 79.820,288.000 79.600 C 288.000 79.335,259.933 79.200,204.600 79.200 C 149.267 79.200,121.200 79.335,121.200 79.600 M190.900 198.322 C 190.025 198.452,189.599 199.200,190.400 199.200 C 190.620 199.200,190.800 199.609,190.800 200.110 C 190.800 200.761,191.483 201.516,193.200 202.767 C 194.960 204.049,195.600 204.766,195.600 205.457 C 195.600 206.359,195.957 206.583,197.140 206.421 C 197.451 206.378,197.561 206.540,197.398 206.803 C 197.243 207.054,197.468 207.651,197.898 208.130 C 198.329 208.608,198.794 209.322,198.933 209.715 C 199.072 210.108,199.728 210.738,200.391 211.115 C 201.053 211.492,201.596 211.954,201.597 212.142 C 201.599 212.330,202.060 213.031,202.621 213.698 C 203.183 214.366,203.549 215.157,203.434 215.456 C 203.246 215.944,203.669 216.179,204.500 216.047 C 204.665 216.021,204.800 216.180,204.800 216.400 C 204.800 216.620,205.129 216.800,205.530 216.800 C 205.932 216.800,206.683 217.250,207.200 217.800 C 207.717 218.350,208.378 218.800,208.670 218.800 C 209.013 218.800,209.205 219.329,209.215 220.300 C 209.228 221.589,209.453 221.954,210.815 222.896 C 211.687 223.499,212.400 224.233,212.400 224.526 C 212.400 225.340,214.282 226.931,214.943 226.677 C 215.326 226.530,215.610 226.784,215.768 227.414 C 215.900 227.943,216.725 229.146,217.599 230.087 C 218.474 231.029,219.192 231.935,219.195 232.100 C 219.203 232.603,220.321 232.434,220.517 231.900 C 220.654 231.525,220.821 231.514,221.185 231.855 C 221.526 232.175,221.541 232.389,221.235 232.578 C 220.610 232.964,220.699 233.956,221.423 234.680 C 221.766 235.023,221.951 235.550,221.836 235.852 C 221.640 236.360,222.142 236.558,223.500 236.507 C 223.775 236.497,224.000 236.829,224.000 237.244 C 224.000 237.955,224.390 238.168,225.454 238.040 C 225.704 238.010,226.018 238.270,226.152 238.618 C 226.285 238.966,226.563 239.146,226.770 239.019 C 227.330 238.673,227.757 239.603,227.264 240.096 C 226.983 240.377,226.968 240.767,227.221 241.238 C 227.711 242.155,226.881 244.117,226.125 243.827 C 225.370 243.537,223.502 244.318,223.800 244.799 C 224.033 245.177,223.733 245.261,221.800 245.359 C 221.360 245.382,220.558 245.130,220.018 244.800 C 218.218 243.701,142.306 243.916,141.198 245.024 L 140.374 245.848 141.179 246.776 C 141.621 247.286,141.899 247.840,141.796 248.006 C 141.693 248.173,141.911 248.555,142.281 248.855 C 142.854 249.319,142.903 249.316,142.611 248.832 C 142.351 248.401,142.437 248.328,142.967 248.532 C 143.351 248.679,143.831 248.800,144.033 248.800 C 144.235 248.800,144.400 249.139,144.400 249.553 C 144.400 250.265,146.620 252.800,147.243 252.800 C 147.745 252.800,149.269 255.564,149.005 255.993 C 148.866 256.217,149.021 256.400,149.348 256.400 C 149.675 256.400,150.224 256.681,150.568 257.026 C 150.912 257.370,151.368 257.543,151.582 257.411 C 151.795 257.280,152.317 257.853,152.742 258.686 C 153.167 259.519,153.894 260.543,154.357 260.962 C 154.821 261.381,155.206 261.921,155.213 262.162 C 155.232 262.764,156.636 264.400,157.135 264.400 C 157.774 264.400,159.252 266.487,159.027 267.073 C 158.916 267.363,159.046 267.600,159.315 267.600 C 159.585 267.600,160.374 268.185,161.069 268.900 C 162.752 270.632,163.477 271.200,164.007 271.200 C 164.249 271.200,164.334 271.383,164.196 271.607 C 164.058 271.830,163.777 271.909,163.572 271.783 C 163.368 271.656,163.200 271.923,163.200 272.376 C 163.200 273.093,163.634 273.418,164.168 273.100 C 164.260 273.045,164.755 273.372,165.268 273.826 C 166.915 275.286,168.546 276.161,168.709 275.672 C 169.013 274.760,170.883 276.456,170.689 277.468 C 170.591 277.981,170.643 278.400,170.805 278.400 C 170.967 278.400,171.212 278.959,171.349 279.643 C 171.530 280.549,171.765 280.822,172.214 280.650 C 172.565 280.515,172.928 280.668,173.058 281.007 C 173.183 281.333,173.491 281.603,173.743 281.607 C 174.549 281.619,176.020 283.481,175.760 284.159 C 175.598 284.583,175.732 284.800,176.157 284.800 C 176.511 284.800,176.800 284.997,176.800 285.238 C 176.800 285.479,177.172 286.199,177.627 286.838 C 178.215 287.664,178.302 288.010,177.927 288.034 C 177.637 288.053,177.933 288.228,178.584 288.422 C 179.414 288.670,179.862 288.630,180.084 288.288 C 180.445 287.731,181.183 288.578,181.194 289.562 C 181.199 290.068,182.370 291.805,183.982 293.700 C 184.310 294.085,184.787 294.400,185.042 294.400 C 185.298 294.400,185.605 294.776,185.725 295.236 C 185.878 295.820,186.163 296.006,186.672 295.852 C 187.881 295.487,188.915 296.564,188.625 297.885 C 188.329 299.234,190.277 301.486,191.376 301.065 C 191.719 300.933,192.000 300.984,192.000 301.179 C 192.000 301.374,191.788 301.604,191.528 301.691 C 191.235 301.788,191.170 302.142,191.357 302.624 C 191.640 303.356,191.686 303.361,192.173 302.700 C 193.082 301.466,194.314 302.619,195.591 305.900 C 195.869 306.615,196.351 307.200,196.661 307.200 C 196.971 307.200,197.339 307.515,197.478 307.900 C 198.040 309.459,199.298 310.889,199.632 310.349 C 200.063 309.651,200.422 310.063,200.522 311.370 C 200.567 311.954,200.783 312.560,201.002 312.716 C 201.221 312.872,201.593 313.349,201.829 313.776 C 202.694 315.343,206.000 313.380,206.000 311.299 C 206.000 310.543,206.158 310.396,206.764 310.589 C 207.370 310.781,207.676 310.497,208.241 309.216 C 208.633 308.327,209.169 307.600,209.431 307.600 C 210.073 307.600,211.200 305.825,211.200 304.814 C 211.200 304.366,211.384 304.000,211.609 304.000 C 211.833 304.000,212.222 303.550,212.473 303.000 C 212.723 302.450,213.260 302.000,213.664 302.000 C 214.523 302.000,214.555 302.150,213.951 303.326 L 213.501 304.200 214.346 303.321 C 214.827 302.822,215.088 302.175,214.953 301.821 C 214.808 301.444,214.932 301.200,215.269 301.200 C 216.069 301.200,218.505 298.494,218.180 297.968 C 217.692 297.178,218.858 295.600,219.930 295.600 C 220.881 295.600,220.894 295.567,220.236 294.840 C 219.470 293.993,220.114 293.154,220.915 293.955 C 221.160 294.200,221.494 294.400,221.658 294.400 C 222.166 294.400,225.200 289.910,225.200 289.158 C 225.200 288.156,225.829 287.886,226.531 288.588 C 227.059 289.116,227.270 288.961,228.378 287.235 C 229.065 286.163,229.983 285.193,230.416 285.080 C 230.925 284.947,231.120 284.657,230.967 284.258 C 230.696 283.551,231.953 281.631,232.700 281.613 C 232.975 281.606,233.200 281.441,233.200 281.247 C 233.200 281.052,233.573 280.796,234.030 280.676 C 234.486 280.557,234.954 280.098,235.069 279.657 C 235.184 279.216,235.539 278.756,235.857 278.634 C 236.312 278.459,236.340 278.235,235.988 277.578 C 235.435 276.545,237.209 274.622,238.374 274.992 C 239.183 275.249,241.459 274.392,241.543 273.800 C 241.574 273.580,241.825 273.400,242.100 273.399 C 242.671 273.398,242.816 272.025,242.317 271.349 C 242.099 271.055,242.506 270.657,243.492 270.200 C 245.564 269.239,248.000 266.484,248.000 265.101 C 248.000 264.796,248.503 264.593,249.255 264.596 C 250.352 264.599,250.526 264.451,250.637 263.413 C 250.716 262.677,251.311 261.709,252.201 260.870 C 252.991 260.125,253.743 258.985,253.872 258.338 C 254.030 257.552,254.317 257.202,254.738 257.284 C 255.514 257.433,256.752 256.286,257.956 254.300 C 258.456 253.475,259.047 252.800,259.269 252.800 C 259.754 252.800,261.000 251.394,261.789 249.956 C 262.104 249.382,262.898 248.691,263.552 248.420 C 264.207 248.149,264.840 247.673,264.959 247.363 C 265.078 247.054,265.474 246.800,265.840 246.800 C 266.379 246.800,266.461 246.530,266.272 245.365 C 266.081 244.186,266.148 243.971,266.649 244.164 C 266.985 244.292,267.561 244.093,267.930 243.721 C 268.557 243.088,268.553 243.062,267.871 243.321 C 267.316 243.531,267.176 243.430,267.286 242.899 C 267.394 242.381,267.764 242.226,268.716 242.302 C 269.952 242.399,270.430 241.913,269.600 241.400 C 269.380 241.264,269.200 240.803,269.200 240.376 C 269.200 239.949,269.380 239.600,269.600 239.600 C 269.820 239.600,270.000 239.780,270.000 240.000 C 270.000 240.220,270.180 240.400,270.400 240.400 C 270.620 240.400,270.800 240.049,270.800 239.620 C 270.800 239.191,271.115 238.662,271.500 238.445 C 272.061 238.128,272.100 237.949,271.700 237.545 C 270.927 236.764,271.100 236.524,272.307 236.701 C 273.616 236.893,275.814 235.134,275.450 234.185 C 275.133 233.361,275.577 232.400,276.274 232.400 C 277.058 232.400,279.200 230.226,279.200 229.431 C 279.200 229.053,279.543 228.800,280.053 228.800 C 281.091 228.800,282.799 226.914,282.800 225.768 C 282.800 224.993,283.571 224.400,285.288 223.853 C 285.667 223.733,286.100 223.132,286.252 222.517 C 286.599 221.112,287.644 219.629,288.300 219.613 C 288.575 219.606,288.800 219.240,288.800 218.800 C 288.800 218.294,289.067 218.000,289.525 218.000 C 290.491 218.000,292.000 216.554,292.000 215.627 C 292.000 214.844,292.744 214.400,294.055 214.400 C 294.606 214.400,295.085 213.858,295.639 212.605 C 296.075 211.618,296.827 210.600,297.308 210.342 C 298.673 209.612,299.000 209.101,299.000 207.700 C 299.000 206.985,299.164 206.416,299.364 206.436 C 299.564 206.456,299.871 206.216,300.046 205.904 C 300.221 205.591,301.156 205.009,302.123 204.610 C 303.772 203.930,306.200 200.352,306.200 198.602 C 306.200 198.234,193.342 197.960,190.900 198.322 " stroke="none" fill-rule="evenodd"></path><path id="path1" d="M110.316 79.834 C 110.032 80.183,109.035 81.268,108.100 82.245 C 107.165 83.222,106.399 84.151,106.398 84.311 C 106.396 84.703,104.034 87.200,103.666 87.200 C 103.505 87.200,103.075 87.695,102.712 88.300 C 102.348 88.905,100.464 91.047,98.525 93.060 C 92.209 99.618,91.543 100.384,91.797 100.795 C 91.935 101.018,91.828 101.200,91.559 101.200 C 90.960 101.200,88.899 103.458,88.579 104.465 C 88.451 104.869,88.118 105.200,87.839 105.200 C 87.309 105.200,85.200 107.363,85.200 107.907 C 85.200 108.080,84.660 108.813,84.000 109.536 C 83.340 110.258,82.800 111.018,82.800 111.225 C 82.800 111.431,82.575 111.602,82.300 111.605 C 81.583 111.611,78.151 115.240,77.907 116.249 C 77.743 116.927,77.853 117.059,78.451 116.903 C 78.863 116.795,79.200 116.548,79.200 116.353 C 79.200 116.159,79.380 116.000,79.600 116.000 C 79.820 116.000,80.000 116.371,80.000 116.824 C 80.000 118.111,80.732 117.338,81.217 115.539 C 81.458 114.643,82.067 113.526,82.570 113.056 C 83.073 112.585,83.773 111.639,84.125 110.954 C 84.477 110.269,85.414 109.400,86.207 109.024 C 87.000 108.647,87.747 108.038,87.867 107.670 C 87.987 107.301,88.336 106.433,88.643 105.740 C 88.949 105.046,89.200 104.315,89.200 104.115 C 89.200 103.914,90.079 103.366,91.154 102.897 C 93.210 101.999,94.800 100.378,94.800 99.179 C 94.800 97.924,95.268 97.186,96.448 96.575 C 97.082 96.247,97.600 95.690,97.600 95.337 C 97.600 94.695,99.032 93.200,99.646 93.200 C 100.143 93.200,103.200 89.902,103.200 89.366 C 103.200 89.106,103.545 88.803,103.966 88.693 C 104.387 88.583,105.223 87.707,105.823 86.746 C 107.668 83.797,110.719 81.120,112.238 81.120 C 112.989 81.120,113.636 80.882,113.760 80.560 C 113.922 80.137,114.860 80.000,117.587 80.000 C 119.729 80.000,121.200 79.837,121.200 79.600 C 121.200 78.868,110.922 79.089,110.316 79.834 M288.000 79.600 C 288.000 79.820,288.860 80.000,289.911 80.000 C 290.962 80.000,292.177 80.243,292.611 80.540 C 293.045 80.837,293.939 81.212,294.598 81.373 C 295.257 81.533,296.547 82.280,297.465 83.032 C 300.391 85.430,300.401 84.690,297.486 81.500 L 295.384 79.200 291.692 79.200 C 289.497 79.200,288.000 79.362,288.000 79.600 M299.600 85.400 C 299.600 85.730,299.889 86.000,300.243 86.000 C 300.621 86.000,300.799 86.224,300.677 86.545 C 300.556 86.859,301.384 87.966,302.634 89.161 C 303.825 90.301,304.800 91.460,304.800 91.736 C 304.800 92.013,305.397 92.455,306.126 92.719 C 306.999 93.035,307.763 93.753,308.365 94.824 C 308.868 95.718,309.666 96.599,310.140 96.781 C 310.677 96.987,311.192 97.739,311.511 98.784 C 312.173 100.953,316.610 104.724,317.478 103.855 C 317.696 103.638,315.332 101.200,314.903 101.200 C 314.670 101.200,314.298 100.705,314.077 100.100 C 313.856 99.495,313.204 98.550,312.628 98.000 C 312.051 97.450,311.089 96.480,310.490 95.843 C 309.890 95.207,308.500 93.741,307.400 92.586 C 306.300 91.430,304.590 89.542,303.600 88.389 C 300.309 84.557,299.600 84.028,299.600 85.400 M317.200 104.567 C 317.200 105.521,319.402 108.787,320.296 109.159 C 320.908 109.413,322.024 110.587,322.800 111.793 C 323.570 112.989,324.380 113.975,324.600 113.985 C 324.820 113.994,325.040 114.575,325.090 115.276 C 325.189 116.687,326.400 118.359,326.400 117.086 C 326.400 116.145,327.707 116.213,328.600 117.200 C 329.382 118.064,330.000 118.241,330.000 117.600 C 330.000 117.380,329.730 117.200,329.400 117.200 C 329.070 117.200,328.800 117.036,328.800 116.835 C 328.800 116.181,324.789 111.650,323.984 111.395 C 323.553 111.258,323.200 110.798,323.200 110.373 C 323.200 109.948,322.930 109.600,322.600 109.600 C 322.270 109.600,322.000 109.317,322.000 108.971 C 322.000 108.625,321.055 107.456,319.900 106.374 C 318.023 104.615,317.200 104.065,317.200 104.567 M75.900 118.087 C 75.515 118.568,75.200 119.106,75.200 119.281 C 75.200 119.457,74.942 119.600,74.627 119.600 C 74.312 119.600,73.948 119.934,73.819 120.341 C 73.689 120.749,73.047 121.560,72.392 122.144 C 71.736 122.728,71.200 123.475,71.200 123.803 C 71.200 124.131,71.032 124.400,70.827 124.400 C 70.423 124.400,65.983 128.875,65.014 130.259 C 64.455 131.057,64.490 131.118,65.652 131.350 C 67.160 131.652,67.705 131.360,67.404 130.412 C 67.155 129.629,67.921 127.600,68.464 127.600 C 68.649 127.600,68.800 127.780,68.800 128.000 C 68.800 128.220,69.001 128.400,69.247 128.400 C 69.504 128.400,69.600 128.042,69.472 127.554 C 69.299 126.891,69.912 126.053,72.311 123.678 C 73.993 122.011,75.152 120.782,74.885 120.947 C 74.618 121.112,74.400 121.057,74.400 120.824 C 74.400 120.591,74.760 120.400,75.200 120.400 C 75.640 120.400,75.964 120.265,75.921 120.100 C 75.777 119.554,76.447 118.000,76.827 118.000 C 77.032 118.000,77.200 117.820,77.200 117.600 C 77.200 116.945,76.647 117.152,75.900 118.087 M330.200 119.400 C 330.200 120.299,330.650 120.613,331.700 120.447 C 331.865 120.421,332.000 120.643,332.000 120.941 C 332.000 121.450,332.681 122.296,335.726 125.569 C 336.427 126.322,336.941 127.201,336.870 127.523 C 336.787 127.896,336.951 128.027,337.321 127.886 C 338.214 127.543,338.800 128.404,338.800 130.056 C 338.800 131.675,339.338 132.316,340.138 131.651 C 340.415 131.421,341.037 131.337,341.521 131.463 C 342.856 131.813,342.599 131.294,340.300 129.005 C 339.145 127.855,337.752 126.348,337.204 125.657 C 336.657 124.966,335.982 124.400,335.704 124.400 C 335.427 124.400,335.200 124.255,335.200 124.078 C 335.200 123.639,330.856 118.400,330.491 118.400 C 330.331 118.400,330.200 118.850,330.200 119.400 M62.064 133.631 C 61.149 134.528,60.400 135.426,60.400 135.626 C 60.400 135.826,59.500 136.840,58.400 137.878 C 57.300 138.916,56.409 140.043,56.421 140.383 C 56.436 140.828,56.616 140.750,57.070 140.100 C 57.415 139.605,57.879 139.200,58.102 139.200 C 58.681 139.200,61.200 136.444,61.200 135.811 C 61.200 135.518,61.717 135.098,62.349 134.878 C 63.248 134.564,64.536 132.000,63.794 132.000 C 63.757 132.000,62.979 132.734,62.064 133.631 M342.796 132.708 C 343.039 133.208,343.128 133.793,342.994 134.009 C 342.861 134.225,343.198 134.571,343.743 134.778 C 344.707 135.145,345.278 135.936,346.620 138.769 C 347.060 139.698,347.367 139.977,347.576 139.639 C 347.813 139.255,348.028 139.285,348.513 139.770 C 348.860 140.117,349.324 140.400,349.544 140.400 C 350.109 140.400,350.503 141.845,350.200 142.800 C 349.991 143.458,350.111 143.582,350.873 143.500 C 351.433 143.440,351.761 143.595,351.702 143.893 C 351.649 144.164,352.042 144.496,352.576 144.630 C 354.494 145.111,354.759 147.859,352.979 148.811 C 352.440 149.099,352.000 149.504,352.000 149.711 C 352.000 149.918,351.528 149.968,350.952 149.824 C 350.000 149.585,349.926 149.649,350.144 150.521 C 350.277 151.049,350.254 151.613,350.093 151.774 C 349.932 151.935,349.800 152.275,349.800 152.530 C 349.800 152.784,349.242 153.264,348.560 153.596 C 347.258 154.230,344.800 156.182,344.800 156.582 C 344.800 156.711,344.376 157.487,343.858 158.308 C 342.224 160.897,342.068 161.982,343.562 160.361 C 344.252 159.613,345.353 158.441,346.008 157.757 C 346.664 157.073,347.200 156.397,347.200 156.255 C 347.200 156.113,348.100 155.115,349.200 154.038 C 350.300 152.961,351.200 151.881,351.200 151.640 C 351.200 151.398,351.447 151.200,351.748 151.200 C 352.050 151.200,352.725 150.571,353.248 149.803 C 353.772 149.034,354.405 148.404,354.657 148.403 C 355.575 148.397,355.692 146.346,354.820 145.533 C 354.369 145.113,354.000 144.598,354.000 144.389 C 354.000 143.786,352.675 142.400,352.099 142.400 C 351.811 142.400,351.459 142.099,351.318 141.731 C 351.177 141.362,350.777 140.745,350.431 140.359 C 350.084 139.973,349.594 139.419,349.343 139.129 C 349.092 138.838,348.237 138.021,347.443 137.312 C 346.649 136.604,346.000 135.753,346.000 135.422 C 346.000 135.090,345.505 134.499,344.900 134.109 C 344.295 133.719,343.475 133.040,343.077 132.600 C 342.361 131.807,342.359 131.808,342.796 132.708 M54.696 141.700 C 54.368 142.195,53.267 143.452,52.250 144.494 C 51.232 145.536,50.407 146.526,50.415 146.694 C 50.440 147.222,55.451 152.400,55.937 152.400 C 56.192 152.400,56.400 152.657,56.400 152.971 C 56.400 153.285,56.846 153.893,57.391 154.322 C 57.936 154.750,58.562 155.573,58.781 156.151 C 59.001 156.728,59.410 157.203,59.690 157.207 C 60.330 157.216,61.572 158.550,62.755 160.500 C 63.256 161.325,63.876 162.003,64.133 162.007 C 64.390 162.011,64.991 162.573,65.468 163.257 C 65.946 163.940,67.836 166.042,69.668 167.928 C 71.501 169.814,73.090 171.578,73.200 171.848 C 73.396 172.330,76.339 175.701,80.100 179.753 C 81.144 180.879,81.999 181.586,82.000 181.324 C 82.000 181.062,81.819 180.736,81.599 180.599 C 81.378 180.463,81.299 179.944,81.424 179.446 C 81.637 178.600,81.166 177.861,80.207 177.534 C 79.990 177.460,79.865 177.096,79.927 176.725 C 79.990 176.354,79.672 175.853,79.221 175.611 C 78.558 175.256,78.400 175.291,78.400 175.789 C 78.400 176.829,76.852 175.596,76.322 174.133 C 76.070 173.436,75.475 172.689,75.000 172.473 C 74.449 172.222,73.813 171.194,73.247 169.640 C 72.342 167.158,72.081 166.879,71.347 167.613 C 70.481 168.479,68.601 166.279,68.687 164.500 C 68.700 164.225,68.416 163.992,68.056 163.983 C 67.695 163.974,66.950 163.408,66.400 162.727 C 65.850 162.045,64.560 160.621,63.532 159.561 C 62.505 158.501,61.550 157.274,61.411 156.833 C 61.147 156.002,58.722 153.922,57.500 153.479 C 57.115 153.339,56.800 152.859,56.800 152.413 C 56.800 151.966,56.606 151.600,56.368 151.600 C 56.097 151.600,56.034 151.155,56.200 150.400 C 56.472 149.159,56.103 148.857,55.298 149.662 C 54.948 150.012,54.466 149.791,53.317 148.753 C 51.543 147.151,51.842 145.492,54.055 144.657 C 54.787 144.381,55.137 144.014,55.003 143.665 C 54.862 143.296,54.992 143.188,55.395 143.343 C 55.863 143.522,56.000 143.261,56.000 142.187 C 56.000 140.586,55.546 140.416,54.696 141.700 M340.015 163.093 C 339.693 163.220,338.861 163.927,338.166 164.664 L 336.902 166.004 227.023 165.998 C 156.266 165.994,116.905 166.131,116.472 166.382 C 116.034 166.637,154.342 166.778,226.633 166.788 L 337.465 166.803 339.333 164.962 C 341.567 162.759,341.685 162.437,340.015 163.093 M115.021 168.912 C 115.169 169.296,115.069 169.876,114.800 170.200 C 114.274 170.833,114.517 172.000,115.175 172.000 C 115.395 172.000,115.471 171.730,115.345 171.400 C 115.218 171.070,115.314 170.800,115.557 170.800 C 115.801 170.800,116.000 171.049,116.000 171.354 C 116.000 171.659,116.492 172.230,117.092 172.624 C 117.693 173.017,118.497 173.713,118.879 174.170 C 119.261 174.626,119.579 174.873,119.587 174.719 C 119.613 174.160,118.664 172.400,118.336 172.400 C 118.151 172.400,117.997 172.175,117.993 171.900 C 117.990 171.625,117.259 170.683,116.370 169.807 C 115.481 168.930,114.874 168.527,115.021 168.912 M120.000 174.711 C 120.000 175.178,121.278 176.955,121.876 177.320 C 122.164 177.496,122.400 177.969,122.400 178.371 C 122.400 178.773,122.674 179.330,123.010 179.608 C 123.345 179.886,123.532 180.201,123.426 180.307 C 123.320 180.413,123.982 180.882,124.897 181.350 C 126.037 181.933,126.677 182.578,126.931 183.400 C 127.135 184.060,127.639 184.972,128.051 185.426 C 128.463 185.880,128.800 186.667,128.800 187.176 C 128.800 187.985,128.946 188.071,129.975 187.865 C 131.025 187.655,131.163 187.745,131.275 188.715 C 131.348 189.350,131.616 189.756,131.921 189.693 C 132.208 189.634,132.716 189.859,133.050 190.193 C 134.451 191.594,134.863 190.624,133.500 189.133 C 133.005 188.592,131.700 187.083,130.600 185.780 C 129.500 184.478,127.908 182.779,127.062 182.006 C 126.217 181.233,125.360 180.178,125.158 179.661 C 124.956 179.145,124.433 178.629,123.995 178.515 C 123.558 178.400,123.200 178.103,123.200 177.853 C 123.199 177.355,120.688 174.400,120.265 174.400 C 120.119 174.400,120.000 174.540,120.000 174.711 M82.400 182.209 C 82.400 182.543,82.850 183.022,83.400 183.273 C 83.950 183.523,84.403 183.925,84.406 184.164 C 84.413 184.724,88.348 189.200,88.832 189.200 C 89.312 189.200,86.425 185.185,85.764 184.931 C 85.484 184.824,85.073 184.210,84.849 183.568 C 84.625 182.926,84.162 182.400,83.821 182.400 C 83.479 182.400,83.200 182.220,83.200 182.000 C 83.200 181.780,83.020 181.600,82.800 181.600 C 82.580 181.600,82.400 181.874,82.400 182.209 M92.731 190.375 C 92.608 191.148,92.532 191.161,91.454 190.598 C 90.824 190.269,90.233 190.000,90.140 190.000 C 89.575 190.000,94.051 195.956,94.900 196.333 C 95.065 196.407,95.200 196.722,95.200 197.033 C 95.200 197.345,95.495 197.600,95.856 197.600 C 96.555 197.600,97.046 198.115,98.620 200.500 C 99.165 201.325,99.882 202.000,100.214 202.000 C 100.546 202.000,101.031 202.495,101.293 203.100 C 101.555 203.705,102.541 204.927,103.485 205.816 C 104.428 206.705,105.200 207.650,105.200 207.916 C 105.200 208.182,105.470 208.400,105.800 208.400 C 106.130 208.400,106.400 208.731,106.400 209.136 C 106.400 209.540,106.850 210.077,107.400 210.327 C 107.950 210.578,108.400 210.967,108.400 211.191 C 108.400 211.416,108.670 211.600,109.000 211.600 C 109.330 211.600,109.600 211.877,109.600 212.216 C 109.600 212.669,110.051 212.841,111.300 212.866 C 112.235 212.885,122.225 212.959,133.500 213.030 C 156.655 213.176,155.672 213.326,152.400 210.152 C 151.521 209.298,150.801 208.433,150.800 208.230 C 150.800 208.026,149.765 206.808,148.500 205.524 C 144.925 201.892,143.442 200.269,142.909 199.400 C 142.478 198.697,142.445 198.770,142.643 200.000 C 143.051 202.544,143.591 203.447,145.041 204.016 C 146.476 204.579,147.923 206.754,147.412 207.580 C 147.270 207.811,147.398 208.000,147.697 208.000 C 148.664 208.000,150.394 208.985,150.397 209.537 C 150.399 209.833,150.748 210.166,151.172 210.277 C 152.002 210.494,152.544 211.443,152.178 212.036 C 151.866 212.541,113.793 212.515,112.895 212.009 C 112.513 211.794,111.427 211.425,110.482 211.189 C 108.602 210.719,107.403 209.264,106.959 206.910 C 106.753 205.824,106.496 205.579,105.325 205.360 C 104.561 205.216,103.841 204.852,103.725 204.549 C 103.609 204.247,103.269 204.000,102.969 204.000 C 102.670 204.000,101.860 202.830,101.170 201.400 C 100.481 199.970,99.766 198.800,99.583 198.800 C 98.334 198.800,93.817 193.012,93.926 191.551 C 94.026 190.216,92.928 189.136,92.731 190.375 M134.800 191.034 C 134.800 192.975,136.426 195.729,137.012 194.781 C 137.189 194.494,137.450 194.509,137.836 194.830 C 138.275 195.194,138.397 195.176,138.387 194.749 C 138.372 194.106,134.800 190.407,134.800 191.034 M139.600 196.738 C 139.600 197.247,140.988 198.400,141.601 198.400 C 141.945 198.400,141.800 198.039,141.200 197.400 C 140.250 196.388,139.600 196.120,139.600 196.738 M188.814 198.374 C 188.586 198.799,188.400 199.236,188.400 199.345 C 188.400 199.755,191.113 202.400,191.533 202.400 C 191.774 202.400,192.187 202.805,192.451 203.300 C 193.308 204.911,195.321 207.200,195.880 207.200 C 196.180 207.200,196.555 207.546,196.713 207.968 C 197.091 208.978,202.740 215.600,203.224 215.600 C 203.865 215.600,203.642 214.911,202.600 213.673 C 202.050 213.019,201.599 212.330,201.597 212.142 C 201.596 211.954,201.053 211.492,200.391 211.115 C 199.728 210.738,199.072 210.108,198.933 209.715 C 198.794 209.322,198.329 208.608,197.898 208.130 C 197.468 207.651,197.243 207.054,197.398 206.803 C 197.561 206.540,197.451 206.378,197.140 206.421 C 195.957 206.583,195.600 206.359,195.600 205.457 C 195.600 204.766,194.960 204.049,193.200 202.767 C 191.529 201.550,190.800 200.753,190.800 200.143 C 190.800 199.661,190.575 199.186,190.300 199.088 C 190.025 198.990,189.950 198.750,190.133 198.555 C 190.528 198.135,305.968 198.024,306.227 198.443 C 306.810 199.387,303.778 203.927,302.105 204.618 C 301.147 205.012,300.205 205.620,300.010 205.968 C 299.816 206.315,299.509 206.555,299.328 206.500 C 299.148 206.445,299.000 206.985,299.000 207.700 C 299.000 209.101,298.673 209.612,297.308 210.342 C 296.827 210.600,296.075 211.618,295.639 212.605 C 295.085 213.858,294.606 214.400,294.055 214.400 C 292.744 214.400,292.000 214.844,292.000 215.627 C 292.000 216.554,290.491 218.000,289.525 218.000 C 289.067 218.000,288.800 218.294,288.800 218.800 C 288.800 219.240,288.575 219.606,288.300 219.613 C 287.644 219.629,286.599 221.112,286.252 222.517 C 286.100 223.132,285.667 223.733,285.288 223.853 C 283.571 224.400,282.800 224.993,282.800 225.768 C 282.799 226.914,281.091 228.800,280.053 228.800 C 279.543 228.800,279.200 229.053,279.200 229.431 C 279.200 230.226,277.058 232.400,276.274 232.400 C 275.577 232.400,275.133 233.361,275.450 234.185 C 275.814 235.134,273.616 236.893,272.307 236.701 C 271.100 236.524,270.927 236.764,271.700 237.545 C 272.100 237.949,272.061 238.128,271.500 238.445 C 271.115 238.662,270.800 239.191,270.800 239.620 C 270.800 240.049,270.620 240.400,270.400 240.400 C 270.180 240.400,270.000 240.220,270.000 240.000 C 270.000 239.780,269.820 239.600,269.600 239.600 C 269.007 239.600,269.115 241.032,269.748 241.557 C 270.181 241.916,270.617 241.652,271.817 240.306 C 272.654 239.368,274.612 237.168,276.169 235.418 C 277.726 233.667,279.855 231.348,280.900 230.263 C 281.945 229.179,282.800 228.149,282.800 227.975 C 282.800 227.801,283.310 227.240,283.933 226.729 C 284.556 226.218,285.591 225.046,286.233 224.124 C 286.875 223.202,287.700 222.368,288.066 222.270 C 288.432 222.173,289.172 221.395,289.711 220.541 C 290.250 219.688,291.162 218.542,291.738 217.995 C 292.315 217.448,292.789 216.769,292.793 216.487 C 292.797 216.206,293.062 215.874,293.382 215.751 C 294.065 215.490,296.800 212.969,296.800 212.603 C 296.800 212.464,298.150 210.970,299.800 209.283 C 301.450 207.595,302.800 206.058,302.800 205.867 C 302.800 205.677,303.295 205.028,303.900 204.426 C 306.697 201.643,309.200 198.838,309.200 198.487 C 309.200 197.192,189.506 197.080,188.814 198.374 M203.219 216.325 C 203.229 216.476,203.946 217.140,204.811 217.800 C 205.677 218.460,206.499 219.405,206.636 219.900 C 206.774 220.395,207.050 220.800,207.249 220.800 C 207.832 220.800,211.208 224.403,214.171 228.188 C 215.037 229.295,215.938 230.328,216.173 230.485 C 217.566 231.413,218.000 231.824,218.000 232.216 C 218.000 232.458,218.495 233.073,219.100 233.583 C 219.705 234.093,220.605 234.877,221.100 235.325 C 222.091 236.222,222.362 235.619,221.400 234.657 C 220.693 233.950,220.629 233.131,221.235 232.525 C 221.548 232.212,221.527 232.002,221.158 231.774 C 220.863 231.592,220.581 231.657,220.490 231.929 C 220.320 232.441,219.203 232.589,219.195 232.100 C 219.192 231.935,218.474 231.029,217.599 230.087 C 216.725 229.146,215.900 227.943,215.768 227.414 C 215.610 226.784,215.326 226.530,214.943 226.677 C 214.282 226.931,212.400 225.340,212.400 224.526 C 212.400 224.233,211.687 223.499,210.815 222.896 C 209.453 221.954,209.228 221.589,209.215 220.300 C 209.205 219.329,209.013 218.800,208.670 218.800 C 208.378 218.800,207.717 218.350,207.200 217.800 C 206.683 217.250,205.932 216.800,205.530 216.800 C 205.129 216.800,204.800 216.658,204.800 216.485 C 204.800 216.312,204.440 216.143,204.000 216.110 C 203.560 216.077,203.208 216.174,203.219 216.325 M222.000 236.649 C 222.000 236.739,222.765 237.596,223.700 238.553 C 224.635 239.510,225.789 240.812,226.264 241.446 C 227.192 242.686,227.935 242.572,227.251 241.296 C 226.964 240.759,226.968 240.392,227.264 240.096 C 227.757 239.603,227.330 238.673,226.770 239.019 C 226.563 239.146,226.285 238.966,226.152 238.618 C 226.018 238.270,225.704 238.010,225.454 238.040 C 224.405 238.166,224.000 237.960,224.000 237.300 C 224.000 236.836,223.663 236.581,223.000 236.542 C 222.450 236.511,222.000 236.559,222.000 236.649 M267.467 242.267 C 266.899 242.834,267.206 243.573,267.900 243.310 C 268.555 243.062,268.557 243.088,267.930 243.721 C 267.561 244.093,266.976 244.289,266.630 244.156 C 265.936 243.890,265.881 244.191,266.400 245.400 C 266.589 245.840,266.756 245.975,266.772 245.700 C 266.787 245.425,267.025 245.200,267.300 245.200 C 267.575 245.200,268.287 244.589,268.883 243.842 L 269.967 242.485 269.083 242.248 C 267.947 241.943,267.788 241.945,267.467 242.267 M138.400 244.038 C 138.400 244.683,139.987 246.800,140.470 246.800 C 140.699 246.800,140.788 246.547,140.670 246.238 C 140.551 245.928,140.821 245.343,141.269 244.938 C 142.408 243.907,218.338 243.774,220.018 244.800 C 220.558 245.130,221.360 245.382,221.800 245.359 C 223.734 245.261,224.033 245.177,223.798 244.797 C 223.661 244.575,223.965 244.226,224.474 244.022 C 225.053 243.790,209.080 243.641,181.900 243.625 C 150.620 243.607,138.400 243.723,138.400 244.038 M263.244 248.558 C 262.718 248.850,262.088 249.443,261.844 249.877 C 261.082 251.231,259.703 252.800,259.275 252.800 C 259.050 252.800,258.456 253.475,257.956 254.300 C 256.752 256.286,255.514 257.433,254.738 257.284 C 254.316 257.202,254.029 257.553,253.871 258.345 C 253.741 258.995,253.085 260.041,252.414 260.668 C 251.742 261.296,250.879 262.437,250.496 263.205 C 249.998 264.203,249.544 264.591,248.900 264.568 C 248.322 264.548,248.000 264.770,248.000 265.188 C 248.000 265.547,247.787 266.053,247.527 266.313 C 247.266 266.574,247.155 266.888,247.279 267.012 C 247.624 267.357,253.172 261.585,254.227 259.783 C 254.461 259.382,254.989 258.861,255.398 258.627 C 256.360 258.076,257.971 256.316,257.987 255.800 C 257.994 255.580,258.515 254.860,259.146 254.200 C 263.904 249.222,264.800 248.262,264.800 248.139 C 264.800 247.870,264.190 248.034,263.244 248.558 M142.674 249.049 C 142.830 249.455,143.732 250.519,144.679 251.413 C 145.625 252.307,146.400 253.194,146.400 253.384 C 146.400 253.827,148.881 256.052,149.115 255.819 C 149.347 255.586,147.620 252.800,147.243 252.800 C 146.620 252.800,144.400 250.265,144.400 249.553 C 144.400 249.139,144.235 248.800,144.033 248.800 C 143.831 248.800,143.379 248.690,143.028 248.555 C 142.538 248.367,142.456 248.481,142.674 249.049 M149.200 256.662 C 149.200 256.807,149.920 257.631,150.800 258.493 C 151.680 259.356,152.400 260.168,152.400 260.297 C 152.400 260.866,158.805 267.328,159.088 267.045 C 159.418 266.715,158.053 264.795,157.277 264.498 C 156.475 264.191,155.232 262.784,155.213 262.162 C 155.206 261.921,154.821 261.381,154.357 260.962 C 153.894 260.543,153.167 259.519,152.742 258.686 C 152.317 257.853,151.795 257.280,151.582 257.411 C 151.368 257.543,150.912 257.370,150.568 257.026 C 149.928 256.386,149.200 256.192,149.200 256.662 M160.760 269.553 C 162.419 271.533,164.471 272.744,163.480 271.156 C 163.220 270.740,162.865 270.400,162.691 270.400 C 162.518 270.400,161.797 269.770,161.090 269.000 C 159.151 266.887,158.892 267.321,160.760 269.553 M245.998 268.405 C 245.761 268.847,244.912 269.522,244.112 269.905 C 242.564 270.645,241.917 271.600,242.964 271.600 C 243.543 271.600,247.200 268.339,247.200 267.823 C 247.200 267.281,246.389 267.673,245.998 268.405 M164.400 273.510 C 164.400 273.757,165.012 274.426,165.761 274.997 C 166.510 275.568,167.233 276.478,167.369 277.018 C 167.504 277.558,167.837 278.006,168.108 278.013 C 168.862 278.034,170.264 279.342,170.572 280.312 C 170.723 280.789,171.389 281.565,172.051 282.037 C 172.714 282.508,173.415 283.313,173.610 283.826 C 173.805 284.339,174.467 285.082,175.082 285.477 C 175.697 285.872,176.528 286.602,176.929 287.098 C 177.999 288.422,178.596 288.199,177.627 286.838 C 177.172 286.199,176.800 285.479,176.800 285.238 C 176.800 284.997,176.511 284.800,176.157 284.800 C 175.732 284.800,175.598 284.583,175.760 284.159 C 176.020 283.481,174.549 281.619,173.743 281.607 C 173.491 281.603,173.183 281.333,173.058 281.007 C 172.928 280.668,172.565 280.515,172.214 280.650 C 171.765 280.822,171.530 280.549,171.349 279.643 C 171.212 278.959,170.967 278.400,170.805 278.400 C 170.643 278.400,170.591 277.981,170.689 277.468 C 170.883 276.456,169.013 274.760,168.709 275.672 C 168.548 276.156,166.922 275.291,165.300 273.856 C 164.805 273.419,164.400 273.263,164.400 273.510 M239.892 274.837 C 239.502 275.063,238.844 275.141,238.429 275.009 C 237.232 274.629,235.416 276.510,235.974 277.551 C 236.300 278.161,236.276 278.436,235.872 278.679 C 235.579 278.855,235.217 279.332,235.068 279.738 C 234.918 280.144,234.437 280.570,233.998 280.685 C 233.559 280.799,233.200 281.052,233.200 281.247 C 233.200 281.441,232.975 281.606,232.700 281.613 C 231.953 281.631,230.696 283.551,230.967 284.258 C 231.120 284.657,230.925 284.947,230.416 285.080 C 229.983 285.193,229.065 286.163,228.378 287.235 C 227.270 288.961,227.059 289.116,226.531 288.588 C 225.829 287.886,225.200 288.156,225.200 289.158 C 225.200 289.910,222.166 294.400,221.658 294.400 C 221.494 294.400,221.160 294.200,220.915 293.955 C 220.114 293.154,219.470 293.993,220.236 294.840 C 220.894 295.567,220.881 295.600,219.930 295.600 C 218.858 295.600,217.692 297.178,218.180 297.968 C 218.505 298.494,216.069 301.200,215.269 301.200 C 214.932 301.200,214.808 301.444,214.953 301.821 C 215.088 302.175,214.827 302.822,214.346 303.321 L 213.501 304.200 213.951 303.326 C 214.555 302.150,214.523 302.000,213.664 302.000 C 213.260 302.000,212.723 302.450,212.473 303.000 C 212.222 303.550,211.833 304.000,211.609 304.000 C 211.384 304.000,211.200 304.366,211.200 304.814 C 211.200 305.825,210.073 307.600,209.431 307.600 C 209.169 307.600,208.633 308.327,208.241 309.216 C 207.676 310.497,207.370 310.781,206.764 310.589 C 206.158 310.396,206.000 310.543,206.000 311.299 C 206.000 313.380,202.694 315.343,201.829 313.776 C 201.593 313.349,201.221 312.872,201.002 312.716 C 200.783 312.560,200.567 311.954,200.522 311.370 C 200.422 310.063,200.063 309.651,199.632 310.349 C 199.298 310.889,198.040 309.459,197.478 307.900 C 197.339 307.515,196.971 307.200,196.661 307.200 C 196.351 307.200,195.869 306.615,195.591 305.900 C 194.314 302.619,193.082 301.466,192.173 302.700 C 191.686 303.361,191.640 303.356,191.357 302.624 C 191.170 302.142,191.235 301.788,191.528 301.691 C 191.788 301.604,192.000 301.374,192.000 301.179 C 192.000 300.984,191.719 300.933,191.376 301.065 C 190.277 301.486,188.329 299.234,188.625 297.885 C 188.915 296.564,187.881 295.487,186.672 295.852 C 186.163 296.006,185.878 295.820,185.725 295.236 C 185.605 294.776,185.298 294.400,185.042 294.400 C 184.214 294.400,181.423 290.699,181.045 289.100 C 180.799 288.061,180.000 287.531,180.000 288.408 C 180.000 288.643,179.577 288.709,179.000 288.564 C 177.559 288.203,177.763 288.827,179.700 290.702 C 180.635 291.607,182.390 293.457,183.600 294.813 C 184.810 296.168,186.385 297.896,187.100 298.652 C 187.815 299.408,188.400 300.091,188.400 300.170 C 188.400 300.248,189.742 301.727,191.382 303.456 C 193.023 305.185,194.575 307.095,194.831 307.700 C 195.087 308.305,195.527 308.800,195.807 308.800 C 196.088 308.800,196.831 309.404,197.459 310.143 C 199.100 312.074,199.871 312.932,200.472 313.495 C 200.762 313.767,201.356 314.362,201.791 314.816 C 202.876 315.947,204.291 315.547,205.799 313.683 C 206.459 312.867,208.034 311.131,209.299 309.825 C 210.565 308.519,211.600 307.214,211.600 306.925 C 211.600 306.636,211.876 306.400,212.213 306.400 C 212.549 306.400,212.936 306.112,213.071 305.760 C 213.206 305.408,213.695 304.719,214.158 304.229 C 214.621 303.739,215.450 302.802,216.000 302.147 C 216.550 301.493,217.310 300.839,217.688 300.696 C 218.067 300.552,218.491 299.977,218.631 299.417 C 218.772 298.858,219.039 298.400,219.225 298.400 C 219.577 298.400,219.940 298.032,223.600 293.967 C 224.810 292.623,226.475 290.800,227.300 289.915 C 228.125 289.030,228.803 288.192,228.808 288.053 C 228.812 287.914,230.342 286.196,232.208 284.235 C 234.073 282.274,235.600 280.441,235.600 280.162 C 235.600 279.883,235.915 279.542,236.300 279.404 C 236.685 279.267,237.630 278.365,238.400 277.400 C 239.170 276.435,240.115 275.533,240.500 275.396 C 240.885 275.258,241.200 274.978,241.200 274.773 C 241.200 274.297,240.785 274.317,239.892 274.837 " stroke="none" fill-rule="evenodd"></path></g></svg>